<?xml version="1.0" encoding="utf-8"?>
<!-- Generator: Adobe Illustrator 26.3.1, SVG Export Plug-In . SVG Version: 6.00 Build 0)  -->
<svg version="1.1" id="Layer_1" xmlns="http://www.w3.org/2000/svg" xmlns:xlink="http://www.w3.org/1999/xlink" x="0px" y="0px"
	 width="67.5px" height="81.7px" viewBox="0 0 67.5 81.7" style="enable-background:new 0 0 67.5 81.7;" xml:space="preserve">
<style type="text/css">
	.st0{fill:#FFFFFF;}
	.st1{fill:#000B40;}
	.st2{fill:#DF173B;}
	.st3{fill:#B1B4C8;}
	.st4{fill:#B31A37;}
	.st5{fill:#F0F0F3;}
	.st6{fill:#00043A;}
	.st7{fill:#DCDDDE;}
	.st8{fill:#C41133;}
</style>
<g>
	<rect class="st0" width="67.5" height="81.7"/>
	<g>
		<rect class="st1" width="67.5" height="76.8"/>
		<path class="st0" d="M60.1,32.3c-0.1-0.6-1.8-5.5-1.5-8.8c0.1-1.6,0.8-5.2,0.9-8c0.1-3.8-0.5-6.9-0.5-6.9S58.2,9,56.3,8.9
			c-0.9-0.1-1.4,0.7-2.9,0.7c-1.8,0-1.9-1.2-3.8-1.2c-1.9,0-3.3,1.6-5.8,1.6c-3.9,0-2.4-1.8-5.3-1.8c-2.2,0-3.6,1.7-6.6,1.9
			c-1.6,0.1-2.5-0.2-3.3-0.4c-0.3,0.2-0.8,0.5-1.5,0.6c-1,0.2-0.9-0.1-1.9,0.6c-0.5,0.3-1,1.1-2,1.9c-1,0.7-2.2,1-2.2,1
			c-0.2-1.4-0.7-3.3-0.9-4c-0.1,0.1-0.4,0.3-1.9,0.3c-1.2,0-1.7-0.2-2-0.3v0c0.5,1.3,0.9,3.8,0.9,3.8c-0.9-0.2-1.9-0.3-2.9-1.5
			c-0.4-0.5-0.7-1.1-2.9-1.5c-1.4-0.3-2.4-0.8-3-1.1c-0.2,0-0.4,0-0.6,0C6.8,9.3,5.9,9,5.9,9s0.2,0.8,0.5,1.8c0.5,0.3,1.2,0.8,2.2,1
			c1.6,0.4,2.7,0,4.3,2.2c-1.1,0-1.1-0.4-2-0.5c-0.9-0.1-0.8,0.4-2.1,0.4c-1.2,0-1.5-0.5-1.7-0.7c0.3,1.3,0.6,2.7,0.8,4.1
			c0.3,0.2,0.7,0.3,1.2,0.3c1.2,0,1.6-0.2,2.3-0.2c0.7,0,1.3,0.6,2.6,0.4c-0.7,0.7-1.9,0.8-2.4,0.9c-0.4,0.1-1.3,0.8-1.3,0.8
			c-0.8,0.6-1.5,0.8-2.1,0.9c0.3,2.8,0.3,5.2,0.3,6.3c0,5-1.2,10.8-1.2,10.8s1.7,0.6,4.5-0.6c2.1-0.9,2.3-0.4,2.7,0.2
			c0.3,0.4,0.7,0.8,1.9,0.6c3-0.4,8.2-3.5,8.7-1c0.3,1.5,5.8,1.4,8.9,0.3c3-1.2,5.2-3.4,6.9-2.9c0.6,0.2,0.5,0.6,0.3,1.3
			c-0.2,0.5-0.9,4.1,8.1,1.4c3.5-1.1,5-2.3,5-0.2c0,2,2.5,1.1,3,1c2.6-1,3.1-0.2,3.1-0.2S60.8,35.5,60.1,32.3 M17.5,21.9
			c-0.7,0-1.4,0.5-2.2,0.5c-0.8,0-0.6-0.5-1.9-0.5c-1.3,0-1.1,0.4-2.6,0.4c-0.1,0-0.1,0-0.2,0c1-0.4,1.7-1.3,2.3-1.5
			c0.5-0.2,1-0.1,1.6-0.4c0.6-0.3,0.8-0.7,1.5-1.2c0.7-0.5,1.8-0.9,1.8-0.9s0.3,1.8,0.3,3.7C18,22,17.7,21.9,17.5,21.9 M26.3,13.1
			c0.3-0.3,0.6-0.6,1-0.7c0.8-0.3,1.3-0.2,2.2-0.5c0.3-0.1,0.6-0.2,0.9-0.4c0.2-0.1,0.3-0.2,0.5-0.3c0.2,0.7,0.4,1.7,0.7,2.9
			c-0.2,0.1-0.5,0.2-1,0.2c-1.3,0-1.7-1.1-4.6-0.8C26.1,13.4,26.2,13.2,26.3,13.1 M27.8,21.9c-1.2,0-2.5,0.7-3.8,0.7
			c-0.7,0-1.3-0.2-1.9-0.3c0-0.5-0.1-3.2-0.2-3.7c0,0,1.4,0.1,2.1,0.5c0.6,0.3,1,0.6,1.5,0.8c0.5,0.2,1.6,0.4,2.2,0.7
			c0.8,0.3,1.9,1.6,2.7,1.8C29.4,22.3,28.5,21.9,27.8,21.9 M29.9,19.6c-0.8-0.8-1.3-1-2.2-1.2c-0.7-0.2-1.6-0.7-1.9-0.8
			c2.3-0.5,3.2-0.2,3.9,0.1c0.6,0.3,1.1,0.5,2.4,0.3c0.1,0.9,0.2,1.9,0.3,2.9C31.8,20.8,30.8,20.5,29.9,19.6"/>
		<path d="M16.2,9.7L16.2,9.7z"/>
		<polygon points="20.2,9.7 20.2,9.7 20.2,9.7 		"/>
		<path d="M6.5,10.8L6.5,10.8L6.5,10.8z"/>
		<polygon class="st0" points="34.9,53.5 34.9,49.4 30.7,41.8 33.8,41.8 36.3,46.8 38.9,41.8 42,41.8 37.7,49.4 37.7,53.5 		"/>
		<polygon class="st0" points="59.3,53.5 52.8,53.5 52.8,41.8 55.6,41.8 55.6,51.1 59.3,51.1 		"/>
		<path class="st0" d="M24.7,41.5c-3.4,0-6.2,2.8-6.2,6.2c0,3.4,2.8,6.2,6.2,6.2s6.2-2.8,6.2-6.2C30.8,44.2,28.1,41.5,24.7,41.5
			 M24.7,51.1c-1.8,0-3.3-1.5-3.3-3.4c0-1.9,1.5-3.4,3.3-3.4c1.8,0,3.3,1.5,3.3,3.4C27.9,49.5,26.5,51.1,24.7,51.1"/>
		<path class="st0" d="M18.3,53.5l-3.2-4.8c1.4-0.6,2.2-1.9,2.2-3.3c0-2.1-1.5-3.6-3.6-3.6H8.2v11.7h2.8V49h1.3l2.8,4.5L18.3,53.5
			L18.3,53.5z M12.9,43.8c0.7,0,1.6,0.3,1.6,1.6c0,0.9-0.7,1.6-1.6,1.6h-1.9v-3.3L12.9,43.8L12.9,43.8z"/>
		<path class="st0" d="M46.8,41.8l5,11.7h-3.1l-1.2-2.9c-2,0-3.9,1.1-4.9,2.9h-3.1l5-11.7H46.8L46.8,41.8z M45.7,46l-1.6,3.9
			c0.9-0.4,2.1-0.6,3-0.5L45.7,46"/>
		<path class="st0" d="M29.3,55.2L35,68.6h-3.5l-1.4-3.4c-2.3,0-4.5,1.2-5.6,3.4h-3.5l5.8-13.4L29.3,55.2L29.3,55.2z M28.1,60.1
			l-1.8,4.4c1-0.5,2.4-0.7,3.4-0.6L28.1,60.1"/>
		<polygon class="st0" points="51.3,68.6 51.3,63.9 46.4,55.2 49.9,55.2 52.9,60.9 55.8,55.2 59.3,55.2 54.4,63.9 54.4,68.6 		"/>
		<polygon class="st0" points="17,63.4 17,55.2 20.2,55.2 20.2,68.6 17,68.6 11.3,60.3 11.3,68.6 8.2,68.6 8.2,55.2 11.3,55.2 		"/>
		<polygon class="st0" points="38.8,63.7 35.4,55.2 31.9,55.2 37.6,68.6 40,68.6 45.8,55.2 42.3,55.2 		"/>
		<path class="st2" d="M30.5,10L30.5,10L30.5,10z"/>
		<path class="st2" d="M30.6,10c0,0,0.1,0,0.1,0C30.6,10,30.6,10,30.6,10"/>
		<path class="st2" d="M12.9,13.2c0.3,0.4,0.8,0.8,0.8,0.8s0.4-0.2,1.1-0.2c0,0,0.1,0,0.1,0s-0.7-0.5-1-0.8
			c-0.4-0.4-1.1-1.6-3.1-1.9C8.4,10.8,6.7,9.6,6,9.1l0,0c0,0,0.1,0.5,0.4,1.2c1.1,0.9,2.7,1.3,4,1.4C11.4,11.8,12.3,12.5,12.9,13.2"
			/>
		<path class="st2" d="M32.4,21.3c-2.1-0.2-2.7-1.4-3.4-1.9c-0.8-0.6-1.6-0.6-2.2-0.8c-0.5-0.2-1.4-0.7-1.8-0.9
			c-0.4,0.1-0.9,0.2-1.2,0.2c0.4,0.2,1.1,0.5,1.5,0.9c1,0.7,1.7,0.4,2.7,0.8c0.5,0.2,1.6,1.5,2.4,1.9c0.5,0.2,1.4,0.4,1.9,0.5
			c0.1,0,0.1,0,0.2,0C32.4,21.8,32.4,21.5,32.4,21.3"/>
		<path class="st2" d="M8.5,21.8c0-0.1,0-0.2,0-0.3C8.5,21.6,8.5,21.7,8.5,21.8"/>
		<path class="st2" d="M9.4,22.1c2-0.4,2.2-1.5,3.3-1.7c2-0.3,1.5-0.3,2.7-1.3c0.9-0.7,1.7-0.9,2-1.1c-0.5,0-0.9-0.1-1.3-0.2
			c-0.2,0.1-0.5,0.2-1,0.6c-0.6,0.5-1,0.8-1.6,0.9c-0.5,0.1-1,0.1-1.7,0.4c-0.6,0.3-1.6,1.6-3.3,1.8C8.8,21.7,9,21.9,9.4,22.1"/>
		<path class="st2" d="M8.6,22.2L8.6,22.2c0-0.1,0-0.2,0-0.4C8.6,21.9,8.6,22,8.6,22.2"/>
		<path class="st2" d="M8.5,21.8L8.5,21.8L8.5,21.8z"/>
		<path class="st2" d="M58.8,21.7c-0.3,0.2-0.9,0.3-1.4,0.2c-1.1-0.2-1.3-1.6-2-1.6c-0.7,0-1.3,0.6-2.2,0.6c-1.3,0-1.1-1.8-5.4,0.6
			c-1.6,0.9-3.7,1-5.1,0.4c-1.4-0.6-0.4-2.3-1.9-2.3c-0.9,0-3.2,1.3-5,1.6c-0.4-6.7-1.9-11.3-2-11.5c-0.5,0.2-1.1,0.3-1.8,0.3
			c-0.5,0-0.9,0-1.3,0c0,0-0.1,0-0.1,0l0,0c-0.4,0-0.8-0.1-1.1-0.2c-0.3,0.3-0.7,0.6-1.2,0.7c-0.7,0.2-1.3,0.1-2,0.4
			c-0.8,0.4-1.6,1.5-2.4,2.1c-0.6,0.4-1.4,1-2,1.2c0.5,0,1-0.1,1.5-0.2c0.2,0,0.4-0.1,0.5-0.1c1.3-0.7,2-1.9,2.8-2.3
			c0.8-0.3,1.3-0.2,2.2-0.5c0.5-0.2,1.2-0.6,1.6-0.9c0.1,0.2,0.2,0.6,0.3,1c0.2,0.7,0.4,1.7,0.7,2.9c0,0.2,0.1,0.4,0.1,0.6
			c-0.2,0.1-0.6,0.2-1.1,0.2c-1.3,0-1.2-0.7-4-0.7c-0.8,0-1.4,0.1-2.2,0.3c-0.3,0.1-0.6,0.2-1,0.2c-1,0.2-2.1,0.2-2.7,0.2
			c0,0-0.1,0-0.1,0c-0.4-2.2-0.9-4-1.1-4.9c-0.3,0-0.7,0.1-1.2,0.1c-0.5,0-0.9,0-1.2-0.1c0.4,1.3,0.9,3.2,1.2,4.9
			c-1.9,0-2.6-0.4-3.5-0.4c-0.9,0-0.6,0.2-1.7,0.2c-1.2,0-1.1-0.4-2.1-0.5c-0.9-0.1-0.8,0.4-2.1,0.4c-0.8,0-1.2-0.3-1.5-0.5
			c0.2,0.8,0.4,1.7,0.5,2.5C8.2,16.8,8.6,17,9.4,17c0.8,0,0.7-0.2,2.1-0.2c1,0,0.9,0.3,2.1,0.4c1.2,0.1,0.9-0.1,1.8-0.1
			c0.9,0,1.6,0.4,3.2,0.3c0.1,0.8,0.4,3.4,0.4,5c-0.2-0.1-0.5-0.2-0.7-0.3c-0.3-0.1-0.6-0.2-0.8-0.2c-0.7,0-1.4,0.5-2.2,0.5
			c-0.8,0-0.6-0.5-1.9-0.5c-1.3,0-1.1,0.4-2.6,0.4c-0.1,0-0.1,0-0.2,0c-0.5,0-0.9-0.1-1.2-0.3c-0.3-0.2-0.6-0.4-0.8-0.7
			c0,0,0,0-0.1,0l0,0c0,0.1,0,0.2,0,0.3l0,0c0,0.1,0,0.2,0,0.4c0.1,1.2,0.1,2.2,0.2,3c0.4,0.3,0.9,0.5,1.7,0.5
			c1.4,0,1.8-0.4,3.1-0.4c1.3,0,1.1,0.4,1.9,0.4c0.8,0,1-0.5,1.7-0.5c0.7,0,1.2,0.5,2.1,0.5c0.9,0,1.6-0.3,2.2-0.3
			c0.6,0,1.8,0.5,3.7,0.5c1.3,0,2.9-0.7,3.6-0.7c0.7,0,1.3,0.3,2.2,0.3c0.6,0,1.1-0.1,1.6-0.2c-0.1,3.8-0.5,8-1.7,12.4
			c1.3-0.1,2.5-0.4,3.5-0.8c0,0,0.1,0,0.1,0c1.1-4.4,1.4-8.3,1.5-12c2.3-0.6,4.5-1.8,5.3-1.8c1.4,0,0.6,1.6,2,2.2
			c1,0.5,2.1,0.5,5-0.5c2.6-1,2.5-1,3.3-1c0.8,0,1.1,0.7,2.1,0.7c1,0,1.3-0.8,2.7-0.8c0.9,0,0.7,1.5,1.8,1.5c0.2,0,0.4,0,0.5-0.1
			c0-0.5,0-1.1,0-1.6C58.7,23,58.7,22.4,58.8,21.7 M32.2,22c-0.7,0.1-1.2,0.3-1.9,0.3l0,0c-0.8,0-1.8-0.4-2.5-0.4
			c-1.2,0-2.5,0.7-3.8,0.7c-0.7,0-1.3-0.2-1.9-0.3c0,0-0.1,0-0.1,0c-0.2,0-0.4,0-0.5,0.1c0-1.6-0.1-3.4-0.3-5c2.9,0,3-0.3,4.7-0.6
			c2.2-0.4,3-0.1,3.7,0.2c0.6,0.3,1.1,0.6,2.6,0.3c0,0.2,0.1,0.5,0.1,0.7c0.1,0.9,0.2,1.9,0.3,2.9c0,0.2,0,0.3,0,0.5
			c0,0.2,0,0.4,0,0.6C32.3,22,32.3,22,32.2,22"/>
		<rect y="78.4" class="st2" width="67.5" height="3.3"/>
		<path class="st0" d="M30.3,21.5c-0.4-0.2-1-0.7-1.5-1.1c-0.4-0.3-0.7-0.6-0.9-0.7c-0.4-0.2-0.8-0.2-1.1-0.3
			c-0.5-0.1-1-0.1-1.5-0.5c-0.5-0.4-1.1-0.7-1.5-0.8l-0.1,0l0,0c0.4,0.2,1.1,0.5,1.5,0.9c0.6,0.4,1.1,0.5,1.6,0.6
			c0.4,0.1,0.7,0.1,1.1,0.3c0.2,0.1,0.5,0.4,0.9,0.7C29.2,20.8,29.8,21.3,30.3,21.5c0.5,0.3,1.2,0.4,1.8,0.5c0,0,0.1,0,0.1,0
			c0,0,0.1,0,0.1,0l-0.1,0C31.6,21.9,30.8,21.7,30.3,21.5"/>
		<path class="st0" d="M9.4,22.1c1.1-0.2,1.7-0.7,2.1-1.1c0.4-0.3,0.7-0.6,1.1-0.6c1.5-0.3,1.6-0.3,2.1-0.7c0.2-0.1,0.4-0.3,0.7-0.6
			c0.8-0.6,1.5-0.9,1.9-1l0.1,0c0,0,0.1,0,0.1,0c0,0-0.1,0-0.1,0c0,0-0.1,0-0.1,0c0,0-0.1,0-0.1,0c-0.4,0.1-1.1,0.4-1.9,1
			c-0.3,0.2-0.5,0.4-0.7,0.6c-0.5,0.4-0.5,0.5-2,0.7c-0.5,0.1-0.8,0.3-1.2,0.7C11.1,21.4,10.5,21.8,9.4,22.1L9.4,22.1L9.4,22.1
			L9.4,22.1"/>
		<path class="st0" d="M32.4,21.3c-1.6-0.2-2.3-0.9-2.9-1.4c-0.2-0.2-0.3-0.3-0.5-0.5c-0.5-0.4-1-0.5-1.5-0.6
			c-0.2-0.1-0.5-0.1-0.7-0.2c-0.5-0.2-1.4-0.7-1.8-0.9l-0.1,0.1c0,0,1.4,0.7,1.9,0.9c0.2,0.1,0.5,0.1,0.7,0.2c0.5,0.1,1,0.3,1.5,0.6
			c0.2,0.1,0.3,0.3,0.5,0.5C30,20.5,30.8,21.2,32.4,21.3L32.4,21.3L32.4,21.3L32.4,21.3z"/>
		<path class="st0" d="M29.4,9.8c-0.4,0.4-0.8,0.6-1.2,0.7c-0.3,0.1-0.5,0.1-0.7,0.1c-0.4,0.1-0.8,0.1-1.3,0.3
			c-0.5,0.2-0.9,0.7-1.4,1.2c-0.3,0.3-0.7,0.7-1,0.9c-0.9,0.7-1.5,1-1.9,1.2l-0.1,0.1l0.1,0c0,0,0.1-0.1,0.1-0.1l0,0
			c0.4-0.1,1-0.5,1.9-1.1c0.3-0.2,0.7-0.6,1-0.9c0.5-0.5,0.9-0.9,1.4-1.2c0.4-0.2,0.8-0.2,1.2-0.3c0.2,0,0.5-0.1,0.7-0.1
			C28.6,10.5,29,10.2,29.4,9.8L29.4,9.8L29.4,9.8z"/>
		<path class="st0" d="M16.1,17.7c-0.2,0.1-0.5,0.3-1,0.6c-0.7,0.5-1,0.8-1.6,0.9c-0.2,0.1-0.4,0.1-0.6,0.1c-0.4,0-0.7,0.1-1.1,0.3
			c-0.2,0.1-0.4,0.3-0.6,0.5c-0.6,0.5-1.4,1.2-2.7,1.3c0,0,0,0-0.1,0l0,0.1h0.1c1.2-0.1,2.1-0.8,2.7-1.3c0.2-0.2,0.5-0.4,0.6-0.5
			c0.4-0.2,0.8-0.3,1.1-0.3c0.2,0,0.4,0,0.6-0.1c0.5-0.1,0.9-0.4,1.6-0.9C15.7,18,15.9,17.8,16.1,17.7c0,0.1,0.1,0.1,0.1,0.1
			L16.1,17.7"/>
		<path class="st0" d="M30.5,10.2c-0.4,0.3-1.1,0.7-1.6,0.9c-0.4,0.1-0.7,0.2-1,0.2c-0.4,0.1-0.7,0.1-1.2,0.3
			c-0.4,0.2-0.8,0.5-1.2,0.9c-0.4,0.4-1,0.9-1.6,1.3c0,0,0,0-0.1,0c0.1,0,0.1,0.1,0.2,0.1c0.6-0.4,1.1-1,1.6-1.4
			c0.4-0.4,0.8-0.8,1.2-0.9c0.4-0.2,0.8-0.2,1.2-0.3c0.3,0,0.6-0.1,1-0.2C29.5,10.9,30.1,10.5,30.5,10.2L30.5,10.2L30.5,10.2z"/>
		<path class="st0" d="M31.6,14.7c-0.3,0.1-0.6,0.1-1.1,0.1c-0.5,0-0.8-0.1-1.2-0.3c-0.5-0.2-1.2-0.4-2.8-0.4
			c-0.7,0-1.4,0.1-2.2,0.3l-0.6,0.1l-0.4,0.1c-1,0.2-2,0.2-2.7,0.2l-0.1,0l0,0l0,0l0,0h0c-0.4-2.3-0.9-4.2-1.1-4.9l0,0l-0.1,0l0,0
			c0.2,0.7,0.7,2.6,1.1,4.9l0,0l0,0h0l0.1,0c0.7,0,1.7,0,2.7-0.2l0.4-0.1l0.6-0.1c0.8-0.2,1.4-0.3,2.2-0.3c1.7,0,2.3,0.2,2.8,0.4
			c0.3,0.1,0.7,0.3,1.2,0.3C31,14.9,31.3,14.9,31.6,14.7L31.6,14.7L31.6,14.7z"/>
		<path class="st0" d="M32,17.2c-1.4,0.2-1.9,0-2.5-0.3c-0.7-0.3-1.4-0.7-3.8-0.2c-0.4,0.1-0.8,0.2-1.1,0.2
			c-0.9,0.2-1.5,0.4-3.7,0.4h0l0,0c0.3,1.9,0.4,3.6,0.3,5v0l0.1,0c0-1.5-0.1-3.1-0.3-5h0l0,0l0,0c2.1,0,2.8-0.2,3.6-0.4
			c0.3-0.1,0.6-0.2,1.1-0.2c2.3-0.5,3-0.1,3.7,0.2C30.1,17.2,30.6,17.5,32,17.2L32,17.2L32,17.2L32,17.2z"/>
		<polygon class="st0" points="18.5,17.4 18.5,17.4 18.6,17.4 		"/>
		<polygon class="st0" points="18.3,14.8 18.2,14.8 18.2,14.9 		"/>
		<polygon class="st0" points="20.6,14.9 20.7,14.9 20.6,14.9 20.6,14.9 		"/>
		<polygon class="st0" points="21,17.4 21,17.4 21,17.3 		"/>
		<polygon class="st0" points="5.9,9.1 6,9.1 5.9,9.1 		"/>
		<path class="st0" d="M18.3,14.9C18,13,17.6,11.2,17.1,10l-0.1,0l0,0C17.5,11.2,17.9,13,18.3,14.9L18.3,14.9L18.3,14.9L18.3,14.9
			c-1.2,0-1.9-0.2-2.4-0.3c-0.4-0.1-0.7-0.1-1.1-0.1c-0.4,0-0.6,0-0.8,0.1c-0.2,0-0.4,0.1-0.9,0.1c-0.7,0-0.9-0.1-1.2-0.2
			c-0.2-0.1-0.4-0.2-0.9-0.2c-0.5,0-0.6,0-0.9,0.2c-0.2,0.1-0.5,0.2-1.2,0.2c-0.6,0-1.1-0.2-1.5-0.5l0,0l0,0.1l0,0
			c0.3,0.3,0.8,0.4,1.4,0.4c0.7,0,1-0.1,1.2-0.2c0.2-0.1,0.4-0.2,0.9-0.2c0.4,0,0.6,0.1,0.8,0.2c0.3,0.1,0.6,0.2,1.2,0.2
			c0.6,0,0.8-0.1,0.9-0.1c0.2,0,0.3-0.1,0.7-0.1c0.4,0,0.7,0.1,1.1,0.1C16.4,14.7,17.1,14.9,18.3,14.9L18.3,14.9L18.3,14.9"/>
		<path class="st0" d="M13.7,14c-0.1-0.1-0.5-0.4-0.8-0.8c-0.7-0.9-1.7-1.5-2.6-1.6c-1.1-0.1-2.8-0.4-3.9-1.4l0,0l0,0.1l0,0
			c1.2,0.9,2.8,1.2,3.9,1.4c1,0.1,2,0.7,2.6,1.6C13.1,13.6,13.6,14,13.7,14L13.7,14L13.7,14"/>
		<path class="st0" d="M14.9,13.8c0,0-0.7-0.5-1-0.8c0,0-0.1-0.1-0.1-0.1c-0.4-0.5-1.1-1.5-3.1-1.7c-1.6-0.2-3.3-0.9-4.7-2l0,0
			L5.9,9l0,0l0,0l0,0c1.5,1.1,3.1,1.8,4.8,2.1c1.9,0.3,2.6,1.2,3,1.7c0,0,0.1,0.1,0.1,0.1C14.1,13.3,14.7,13.7,14.9,13.8L14.9,13.8
			L14.9,13.8z"/>
		<path class="st0" d="M19,22.4c0-1.6-0.3-4.2-0.4-5l0,0l0,0c-1,0.1-1.7-0.1-2.2-0.2c-0.4-0.1-0.7-0.1-1-0.1c-0.4,0-0.6,0-0.7,0.1
			c-0.2,0-0.4,0.1-1.1,0.1c-0.5,0-0.8-0.1-1-0.2c-0.3-0.1-0.5-0.2-1-0.2c-0.8,0-1.1,0.1-1.3,0.1C9.9,17,9.8,17,9.4,17
			c-0.6,0-1.1-0.2-1.4-0.4l0,0l0,0l0,0l0,0c0.3,0.3,0.8,0.4,1.4,0.4c0.4,0,0.6,0,0.8-0.1c0.3-0.1,0.6-0.1,1.3-0.1
			c0.5,0,0.8,0.1,1,0.2c0.2,0.1,0.5,0.2,1,0.2c0.7,0,0.9,0,1.1-0.1c0.2,0,0.3-0.1,0.7-0.1c0.3,0,0.6,0.1,1,0.1
			c0.6,0.1,1.2,0.3,2.2,0.2l0,0l0,0l0,0C18.6,18.2,18.9,20.7,19,22.4L19,22.4L19,22.4"/>
		<path class="st3" d="M57.1,8.9c0.5,2.1,1.3,6.1,0.4,8.9c-1.1,3.7-1.5-0.1-1.6-0.7c-0.1-1.2-0.5-1-0.4,1.1
			c0.1,1.9,1.6,7.7,3.3,11.6c1.1,2.6,1.3,5.6,1.3,7.1c0.3,0.1,0.5,0.2,0.5,0.2s0.1-1.7-0.6-4.9c-0.1-0.6-1.8-5.5-1.5-8.8
			c0.1-0.6,0.2-1.4,0.3-2.4c0-0.1,0-0.2,0-0.3c-0.1-3.8,0.6-7.9-0.9-12l0,0L57.1,8.9L57.1,8.9z"/>
		<path class="st4" d="M58.6,23.5c0-0.5,0.1-1.1,0.2-1.8c-0.3,0.2-0.9,0.3-1.4,0.2c-0.7-0.1-1-0.8-1.4-1.2c0.2,0.9,0.5,2,0.8,3.2
			c0.3,0.4,0.5,1.2,1.2,1.2c0.2,0,0.4,0,0.5-0.1C58.6,24.5,58.6,24,58.6,23.5"/>
		<path class="st5" d="M44.4,13.1c-0.1,0-0.3-0.2-0.7-0.8c-0.5-0.7-1.8-2.3-2.6-3c0.4,0.3,1.1,0.6,2.6,0.6
			C43.9,11.4,44.6,13.1,44.4,13.1"/>
		<path class="st6" d="M9.4,17.6c0.2,0,0.4,0,0.6,0l0,0C9.8,17.6,9.6,17.6,9.4,17.6"/>
		<path class="st7" d="M9.3,17.6C9.3,17.6,9.3,17.6,9.3,17.6c-0.2,0-0.3,0-0.4,0c0-0.2-0.1-0.4-0.1-0.6c0.2,0,0.4,0,0.6,0
			c0.2,0,0.3,0,0.4,0c0.1,0.2,0.1,0.4,0.1,0.6C9.8,17.6,9.6,17.6,9.3,17.6L9.3,17.6"/>
		<path class="st8" d="M9.4,17c-0.2,0-0.4,0-0.6,0c-0.2-0.8-0.3-1.7-0.5-2.4c0.2,0,0.4,0.1,0.6,0.1c0.1,0,0.2,0,0.3,0
			c0.1,0.3,0.2,0.6,0.3,1c0.1,0.5,0.3,1,0.4,1.4C9.7,17,9.6,17,9.4,17"/>
		<path class="st6" d="M8.9,13.9L8.9,13.9C9,13.9,9,13.9,8.9,13.9 M8.9,13.9c-0.3,0-0.6,0-0.8-0.1c0,0,0,0,0,0
			C8.3,13.9,8.6,13.9,8.9,13.9C8.9,13.9,8.9,13.9,8.9,13.9"/>
		<path class="st7" d="M8.9,14.5c-0.2,0-0.4,0-0.6-0.1c0-0.2-0.1-0.4-0.1-0.6c0.2,0.1,0.5,0.1,0.8,0.1c0,0,0,0,0,0s0,0,0,0h0
			c0,0,0,0,0,0c0,0.1,0.1,0.3,0.2,0.6C9.1,14.5,9,14.5,8.9,14.5"/>
		<path class="st7" d="M8.9,14.6c-0.2,0-0.4,0-0.6-0.1c0,0,0,0,0-0.1C8.5,14.5,8.7,14.5,8.9,14.6c0.1-0.1,0.2-0.1,0.3-0.1
			c0,0,0,0,0,0.1C9.1,14.6,9,14.6,8.9,14.6"/>
		<path class="st7" d="M9.4,17.1c-0.2,0-0.4,0-0.6,0c0,0,0,0,0-0.1C9,17,9.2,17,9.4,17.1C9.6,17,9.7,17,9.8,17c0,0,0,0,0,0.1
			C9.7,17.1,9.6,17.1,9.4,17.1"/>
		<path class="st6" d="M8.3,11.7c-0.3-0.1-0.5-0.2-0.7-0.3C7.8,11.6,8,11.7,8.3,11.7C8.2,11.7,8.3,11.7,8.3,11.7"/>
		<path class="st7" d="M8.2,11.7c-0.3-0.1-0.5-0.2-0.7-0.3c0,0,0,0,0,0c-0.1-0.2-0.1-0.4-0.2-0.5c0.2,0.1,0.3,0.2,0.5,0.2
			C8,11.4,8.1,11.6,8.2,11.7"/>
		<path class="st8" d="M7.8,11.1c-0.2-0.1-0.3-0.1-0.5-0.2c-0.1-0.3-0.2-0.5-0.2-0.6C7.3,10.4,7.5,10.7,7.8,11.1"/>
		<path class="st7" d="M7.8,11.1c-0.2-0.1-0.4-0.1-0.5-0.2c0,0,0,0,0-0.1C7.5,10.9,7.6,11,7.8,11.1C7.8,11.1,7.8,11.1,7.8,11.1"/>
		<path class="st1" d="M53.2,9.6c-0.7,0-1.1-0.2-1.5-0.4c0,0,0,0,0,0C52.2,9.4,52.6,9.5,53.2,9.6 M53.2,9.6
			C53.2,9.6,53.2,9.6,53.2,9.6C53.2,9.6,53.2,9.6,53.2,9.6 M53.3,9.6C53.2,9.6,53.2,9.6,53.3,9.6C53.2,9.6,53.2,9.6,53.3,9.6
			 M53.3,9.6C53.3,9.6,53.3,9.6,53.3,9.6C53.3,9.6,53.3,9.6,53.3,9.6 M53.3,9.6C53.3,9.6,53.3,9.6,53.3,9.6
			C53.3,9.6,53.3,9.6,53.3,9.6 M53.3,9.6C53.3,9.6,53.3,9.6,53.3,9.6C53.3,9.6,53.3,9.6,53.3,9.6 M53.3,9.6
			C53.3,9.6,53.3,9.6,53.3,9.6C53.3,9.6,53.3,9.6,53.3,9.6 M53.3,9.6L53.3,9.6C53.3,9.6,53.3,9.6,53.3,9.6 M53.3,9.6
			C53.3,9.6,53.3,9.6,53.3,9.6C53.3,9.6,53.3,9.6,53.3,9.6 M53.3,9.6C53.3,9.6,53.3,9.6,53.3,9.6C53.3,9.6,53.3,9.6,53.3,9.6
			 M53.3,9.6L53.3,9.6L53.3,9.6 M53.4,9.6c0.1,0,0.1,0,0.2,0c0,0,0,0,0,0C53.5,9.6,53.4,9.6,53.4,9.6"/>
		<path class="st0" d="M53.8,11.5c-0.1,0-0.3-0.3-1-1.3c-0.4-0.6-0.8-0.9-1-1.1c0.4,0.2,0.8,0.4,1.5,0.4l0,0c0,0,0,0,0,0
			c0,0,0,0,0,0c0,0,0,0,0,0c0,0,0,0,0,0c0,0,0,0,0,0c0,0,0,0,0,0c0,0,0,0,0,0c0,0,0,0,0,0c0,0,0,0,0,0c0,0,0,0,0,0c0,0,0,0,0,0
			c0,0,0,0,0,0h0c0,0,0,0,0,0c0,0,0,0,0,0c0,0,0,0,0,0c0,0,0,0,0,0c0,0,0,0,0,0h0c0,0,0,0,0,0c0.1,0,0.1,0,0.2,0
			C53.4,10.5,53.9,11.5,53.8,11.5"/>
		<path class="st3" d="M52.8,10.2c1.9,2.5,0.5,0.7,0.8-0.7c-0.1,0-0.1,0-0.2,0c-0.7,0-1.2-0.2-1.6-0.4C52,9.4,52.4,9.7,52.8,10.2"/>
		<path class="st7" d="M42.7,22C42.7,22,42.6,22,42.7,22c-1-0.5-0.8-1.5-1.2-2c-0.4-2-0.9-3.3-0.9-3.4c-0.4-1-0.5-1.4-0.5-1.4
			C40.2,15.2,41.6,18.1,42.7,22 M44.2,37.7c-2.6,0-2.9-1.3-2.8-2c0-0.2,0.1-0.3,0.1-0.5c1.3-3.1,1.2-7.2,0.8-10.8
			c0.1,0.3,0.4,0.7,0.8,0.9c0.1,0.1,0.2,0.1,0.4,0.1c0.5,2.6,0.8,5.3,0.5,7.8c-0.3,2.3,0.5,3.7,2.1,4.3
			C45.3,37.6,44.7,37.7,44.2,37.7"/>
		<path class="st8" d="M43.5,25.5c-0.1,0-0.3-0.1-0.4-0.1c-0.5-0.2-0.7-0.5-0.8-0.9c-0.2-1.7-0.5-3.2-0.8-4.5c0.4,0.5,0.1,1.5,1.1,2
			c0,0,0,0,0,0C43,23.1,43.3,24.3,43.5,25.5"/>
		<path class="st3" d="M44,33.3c1-9.5-5.8-22.3-3.4-16.6c0.1,0.4,3.8,11.8,0.9,18.6c-0.1,0.1-0.1,0.3-0.1,0.5
			c-0.1,0.9,0.3,2.5,4.7,1.8C44.5,37,43.7,35.6,44,33.3"/>
		<path class="st0" d="M55.9,37.8c-0.7,0-1.3-0.3-1.3-1.3c0.1-0.6,0.1-1.7-0.2-3.1c-0.1-0.3-0.1-0.6-0.1-0.6c0,0,0.1,0.2,0.3,0.5
			c0.1,0.1,0.1,0.3,0.2,0.5c0.3,1,0.8,3.8,2,3.9C56.4,37.7,56.2,37.8,55.9,37.8"/>
		<path class="st3" d="M54.7,33.8c-0.1-0.2-0.1-0.4-0.2-0.5c-0.3-0.8-0.3-0.6-0.2,0.1c0.3,1.4,0.3,2.5,0.2,3.1
			c0,1.4,1.2,1.4,2.1,1.2C55.4,37.6,55,34.8,54.7,33.8"/>
		<path class="st1" d="M15.5,37.7c-0.5-0.2-0.7-0.5-0.9-0.8c0.1,0.1,0.1,0.2,0.2,0.2C14.9,37.3,15.1,37.6,15.5,37.7 M15.5,37.7
			L15.5,37.7L15.5,37.7 M15.5,37.7L15.5,37.7"/>
		<path class="st0" d="M16.1,37.8c-0.2,0-0.4,0-0.6-0.1c0,0,0,0,0,0c0,0,0,0,0,0c0,0,0,0,0,0c-0.4-0.1-0.6-0.4-0.7-0.6
			c-0.1-0.1-0.1-0.2-0.2-0.2c0-0.3,0.1-1.1,0.4-1.9c0.3-1,0.8-2,1-2.4c0.1-0.2,0.2-0.4,0.2-0.4c0,0,0,0.2,0,0.4
			c-0.1,1.2-0.5,4.1,0.8,5.1c-0.1,0-0.2,0-0.3,0.1C16.5,37.8,16.3,37.8,16.1,37.8"/>
		<path class="st3" d="M16.2,32.6c0-0.5,0-0.6-0.2,0c-0.2,0.4-0.7,1.4-1,2.4c-0.3,0.8-0.4,1.6-0.4,1.9c0.3,0.5,0.6,1.1,2.1,0.9
			c0.1,0,0.2,0,0.3-0.1C15.7,36.7,16.1,33.8,16.2,32.6"/>
		<path class="st3" d="M28.8,31.6c0.5-1.8,0.7-2.2,1-4.6c0.1-0.9-0.1-0.9-0.2-0.6c0,0.1-0.1,0.3-0.2,0.6c-0.2,0.7-0.4,1.3-0.4,1.3
			c-1.3,4.1-3.9,6.9-3.6,8.4c0,0.1,0,0.2,0.1,0.2c0.4,0.6,1.8,0.9,3.5,0.9C27.3,36.5,28,34.3,28.8,31.6"/>
		<path class="st6" d="M10.8,22.4c0,0-0.1,0-0.1,0c0,0,0,0,0,0C10.7,22.3,10.7,22.3,10.8,22.4C10.8,22.3,10.8,22.3,10.8,22.4"/>
		<path class="st7" d="M10.6,22.4L10.6,22.4c0.1,0,0.1,0,0.2-0.1c0,0,0,0,0,0C10.7,22.3,10.7,22.3,10.6,22.4"/>
		<path class="st8" d="M10.7,22.4C10.7,22.4,10.6,22.4,10.7,22.4C10.6,22.4,10.7,22.4,10.7,22.4"/>
		<path class="st6" d="M9.2,20.2L9.1,20l1-0.4l0.1-0.1l0.1,0.1C9.9,19.9,9.5,20.1,9.2,20.2"/>
		<path class="st6" d="M10.8,22.4c0,0-0.1,0-0.1,0C10.7,22.4,10.7,22.4,10.8,22.4 M8.9,37.7C8.9,37.7,8.9,37.7,8.9,37.7
			C8.9,37.7,8.9,37.7,8.9,37.7"/>
		<path class="st7" d="M10.6,22.4c-0.5,0-0.9-0.1-1.2-0.3l0,0c0.5-0.1,0.9-0.3,1.3-0.4c0,0.2,0.1,0.4,0.1,0.6
			C10.7,22.3,10.7,22.3,10.6,22.4 M8.8,37.7c-0.2,0-0.4,0-0.6,0v0c0.9-4.3,1.3-8.4,1.3-12.1c0.3,0.1,0.6,0.1,1,0.1
			c0.2,0,0.4,0,0.6,0c0,2.3-0.2,4.8-1,7c-0.3,0.8-0.3,1.1-0.2,1.1c0.2,0,0.7-0.8,1.1-1.7c0.5-1.1,0.8-2.1,1-2.1c0.1,0-0.1,2.2-1,4.1
			c-0.7,1.4-1.7,2.9-2.1,3.5C8.9,37.7,8.9,37.7,8.8,37.7C8.8,37.7,8.8,37.7,8.8,37.7"/>
		<path class="st8" d="M9.4,22.1C9.4,22.1,9.4,22.1,9.4,22.1c-0.1-0.3-0.1-0.5-0.1-0.7c0.5-0.1,0.9-0.3,1.2-0.6
			c0,0.3,0.1,0.6,0.1,0.9C10.4,21.8,9.9,22,9.4,22.1L9.4,22.1L9.4,22.1"/>
		<path class="st8" d="M10.5,25.7c-0.4,0-0.7,0-1-0.1c0-1.2,0-2.4-0.1-3.5c0,0,0,0,0.1,0c0.3,0.2,0.7,0.3,1.2,0.3c0,0,0,0,0,0
			c0,0,0.1,0,0.1,0c0.1,1,0.2,2.2,0.2,3.3C10.9,25.7,10.7,25.7,10.5,25.7"/>
		<path class="st6" d="M9.2,20.2L9.2,20.2c0.3-0.1,0.7-0.3,1.1-0.6v0C9.9,19.9,9.5,20.1,9.2,20.2"/>
		<path class="st7" d="M9.3,21.3c0-0.3-0.1-0.7-0.1-1v0c0.3-0.1,0.7-0.3,1.1-0.6l0,0c0.1,0.3,0.1,0.7,0.2,1
			C10.2,20.9,9.8,21.1,9.3,21.3"/>
		<path class="st7" d="M9.4,22.1L9.4,22.1L9.4,22.1L9.4,22.1c0.5-0.1,0.9-0.3,1.2-0.5c0,0,0,0,0,0.1C10.4,21.8,10,22,9.4,22.1"/>
		<path class="st7" d="M9.3,21.3C9.3,21.3,9.3,21.3,9.3,21.3c0.5-0.2,0.9-0.4,1.2-0.6c0,0,0,0,0,0.1C10.2,21,9.8,21.2,9.3,21.3"/>
		<path class="st3" d="M12,30.1c-0.1,0-0.5,0.9-1,2.1c-0.7,1.5-1.7,2.7-1,0.5c1.1-3.4,1.1-7.2,0.7-10.3c-0.1,0-0.1,0-0.2,0
			c0.1,0,0.1,0,0.2-0.1c-0.1-0.9-0.3-1.8-0.5-2.6l0,0c-0.4,0.3-0.8,0.5-1.1,0.6l0,0c0.5,4.7,0.4,10.8-1,17.4v0c0.2,0,0.4,0,0.7,0
			c0.4-0.6,1.4-2,2.1-3.5C11.9,32.3,12.2,30.1,12,30.1"/>
		<path class="st4" d="M10.6,22.4L10.6,22.4c-0.5,0-0.9-0.1-1.2-0.3l-0.1,0c0.1,1.1,0.1,2.3,0.1,3.5c0.3,0.1,0.6,0.1,1,0.1
			c0.2,0,0.4,0,0.6,0c0-1.1-0.1-2.2-0.2-3.3C10.7,22.4,10.7,22.4,10.6,22.4"/>
		<path class="st4" d="M9.3,21.3c0,0.2,0,0.5,0.1,0.7l0.1,0c0.5-0.1,1-0.3,1.3-0.4c0-0.3-0.1-0.6-0.2-0.9
			C10.2,20.9,9.8,21.2,9.3,21.3"/>
		<path class="st4" d="M41.5,20c0.3,1.3,0.6,2.8,0.8,4.4c0.1,0.3,0.4,0.7,0.8,0.9c0.1,0.1,0.2,0.1,0.4,0.1c-0.2-1.2-0.5-2.4-0.8-3.4
			l0,0C41.6,21.5,41.9,20.5,41.5,20"/>
	</g>
</g>
</svg>
